<svg width="357" height="40" viewBox="0 0 357 40" fill="none" xmlns="http://www.w3.org/2000/svg">
<g filter="url(#filter0_d_1_19)">
<path fill-rule="evenodd" clip-rule="evenodd" d="M216.408 0.360195C216.105 0.553226 213.557 0.673154 210.747 0.626808C206.473 0.556094 205.538 0.672677 205.021 1.34016C204.448 2.08027 204.424 2.07884 204.686 1.31627C204.936 0.591927 204.63 0.507835 202.083 0.599572C200.495 0.657386 199.196 0.835605 199.195 0.996145C199.195 1.15716 198.629 1.17962 197.939 1.04631C197.032 0.87144 196.784 0.966045 197.041 1.38698C197.297 1.80362 197.111 1.78929 196.387 1.33682C195.531 0.801682 195.305 0.814582 194.923 1.42091C194.623 1.89727 194.468 1.93741 194.464 1.54036C194.455 0.80407 188.033 0.692743 187.587 1.42091C187.426 1.6837 187.52 1.89871 187.796 1.89871C188.071 1.89871 188.297 2.11372 188.297 2.3765C188.297 3.26617 187.263 2.86099 187.006 1.87099C186.773 0.971778 186.485 0.90823 183.616 1.12658C181.891 1.25798 180.22 1.37791 179.903 1.3932C179.553 1.40992 179.448 1.75107 179.636 2.25706C179.908 2.98904 179.848 3.0115 179.147 2.43766C178.708 2.07692 178.348 1.94171 178.348 2.13761C178.348 2.3335 178.082 2.29815 177.756 2.05973C176.86 1.40419 172.329 1.66506 171.416 2.42524C170.798 2.94031 170.568 2.95703 170.416 2.49978C170.29 2.12279 169.929 2.04682 169.426 2.29098C168.991 2.50264 167.716 2.63213 166.592 2.57861C165.053 2.50503 164.324 2.72482 163.636 3.46875C163.134 4.01249 162.579 4.31159 162.403 4.13337C162.226 3.95563 162.343 3.8099 162.662 3.8099C162.982 3.8099 163.111 3.59489 162.95 3.3321C162.789 3.06931 161.726 2.8543 160.587 2.8543C158.815 2.8543 158.486 3.01007 158.31 3.92935L158.105 5.0044L158.04 3.92935C157.971 2.77594 157.24 2.46872 156.903 3.45155C156.585 4.38039 157.538 6.12531 158.392 6.17739C161.355 6.35848 164.14 6.31022 165.556 6.05268C166.468 5.88737 168.44 5.70819 169.939 5.65468C172.477 5.56438 172.881 5.33025 172.712 4.0488C172.677 3.78601 172.942 3.94751 173.3 4.40715C174.124 5.46499 175.414 5.4755 176.554 4.4339C177.211 3.83427 177.374 3.80321 177.179 4.31445C176.975 4.8515 177.437 5.02637 179.26 5.10378C181.338 5.19169 181.628 5.08323 181.811 4.14818L182.018 3.0932L182.362 4.13624C182.684 5.11094 182.942 5.16637 186.331 4.98576C188.324 4.87969 191.288 4.75785 192.917 4.71485C194.545 4.67185 195.878 4.44298 195.878 4.20647C195.878 3.96996 196.322 4.01583 196.865 4.3092C197.635 4.72488 198.025 4.68379 198.642 4.12047C199.214 3.59871 199.664 3.53039 200.271 3.87345C201.392 4.50605 206.658 4.86488 206.985 4.33118C207.128 4.09753 207.995 4.08033 208.929 4.29295C209.856 4.50366 211.723 4.5352 213.077 4.36271C214.431 4.18975 216.889 4.15726 218.538 4.28961C220.188 4.42196 221.615 4.45158 221.71 4.35554C221.806 4.25903 225.946 4.18306 230.911 4.18593C238.982 4.1907 239.94 4.10804 239.946 3.40329C239.952 2.76304 240.032 2.74011 240.371 3.28098C240.616 3.67134 241.202 3.83809 241.786 3.68424C242.333 3.53994 242.781 3.59919 242.781 3.81659C242.781 4.03399 244.274 4.17542 246.097 4.1305C247.933 4.08511 249.417 3.83522 249.421 3.571C249.426 3.30821 249.594 3.35599 249.797 3.67659C250.061 4.0961 251.691 4.21698 255.593 4.10613C258.579 4.02156 261.235 3.89447 261.496 3.82423C261.756 3.754 262.076 3.74874 262.206 3.81277C263.142 4.27002 268.678 4.43534 272.511 4.12047C273.879 4.00819 274.998 4.05358 274.998 4.22128C274.998 4.38947 275.478 4.57151 276.064 4.62646C279.983 4.99293 281.945 4.98719 282.46 4.60734C282.839 4.32783 283.052 4.36367 283.052 4.7072C283.052 5.46356 286.143 5.3766 286.78 4.60209C287.07 4.24947 287.198 3.85003 287.064 3.71434C286.93 3.57912 287.145 3.19641 287.542 2.86386C288.134 2.3679 288.264 2.38845 288.264 2.97614C288.264 3.37033 287.946 3.9585 287.558 4.2834C286.382 5.26814 287.143 5.60403 290.628 5.63748C292.459 5.65468 294.169 5.80184 294.43 5.96429C294.69 6.12674 295.034 5.91699 295.193 5.49844C295.454 4.8128 295.541 4.81758 296.07 5.54718C296.616 6.30114 296.697 6.29397 297.234 5.44206C297.707 4.69192 297.764 4.67758 297.553 5.36274C297.388 5.8974 297.546 6.19889 297.991 6.19889C298.374 6.19889 298.694 5.82286 298.702 5.36274C298.715 4.62741 298.786 4.61403 299.294 5.25094C299.693 5.75167 300.603 5.94614 302.24 5.8802C303.543 5.82812 305.634 6.02975 306.887 6.32838C308.67 6.75362 309.376 6.7388 310.135 6.261C310.668 5.92511 310.963 5.88163 310.79 6.16354C310.612 6.45356 310.848 6.69246 311.332 6.71348C311.804 6.73355 312.616 6.85156 313.137 6.97627C313.977 7.17647 318.113 7.2424 318.97 7.06896C319.149 7.03265 319.672 7.16882 320.132 7.37141C320.592 7.574 321.392 7.62846 321.909 7.49181C322.426 7.35564 322.849 7.41059 322.849 7.61365C322.849 7.81719 323.756 7.98633 324.863 7.98968C326.786 7.99589 328.745 8.24626 333.126 9.04657C334.372 9.27448 335.298 9.22097 335.613 8.90323C335.967 8.54632 336.115 8.56638 336.115 8.97012C336.115 9.72887 337.391 9.70927 337.697 8.94623C337.887 8.46843 337.943 8.46843 337.973 8.94623C338.026 9.79337 339.905 9.6916 339.905 8.84159C339.905 8.42782 340.185 8.24817 340.586 8.40345C340.96 8.54822 341.159 8.95005 341.028 9.2955C340.864 9.72457 341.177 9.90183 342.013 9.85309C343.045 9.79337 343.122 9.69781 342.505 9.24151C341.846 8.75511 341.848 8.67197 342.522 8.4111C342.955 8.24339 343.149 8.32079 342.982 8.59314C342.822 8.85306 342.918 9.06568 343.194 9.06568C343.469 9.06568 343.695 9.38819 343.695 9.78238C343.695 10.5469 344.259 10.727 344.834 10.1469C345.42 9.55638 346.742 9.74129 347.352 10.4991C347.865 11.136 347.932 11.136 347.952 10.4991C347.966 10.0466 348.102 9.97063 348.322 10.2931C348.699 10.8464 352.709 12.5579 352.982 12.2822C353.074 12.1895 352.797 11.6061 352.366 10.9855C351.63 9.92715 351.563 9.9133 351.267 10.7623C350.976 11.6004 350.862 11.5693 349.743 10.3514C349.001 9.54348 347.965 8.99497 347.063 8.93094C346.254 8.87361 345.592 8.68344 345.592 8.50809C345.588 7.45216 336.955 5.49844 335.57 6.24046C335.028 6.53096 334.706 6.44257 334.519 5.95139C334.35 5.50752 333.615 5.24329 332.549 5.24329C331.314 5.24329 330.945 5.40718 331.203 5.84054C331.425 6.21275 331.243 6.1793 330.721 5.7512C330.259 5.37326 329.303 5.03689 328.594 5.00344C327.887 4.96999 327.043 4.77792 326.72 4.57677C326.397 4.37513 324.487 4.12859 322.477 4.02873C320.467 3.92839 318.822 3.8185 318.822 3.78362C318.822 3.4009 314.942 3.59585 314.684 3.99146C314.438 4.3694 314.334 4.35125 314.329 3.92935C314.325 3.6011 314.095 3.3321 313.82 3.3321C313.544 3.3321 313.463 3.56957 313.641 3.85959C313.819 4.14961 313.458 4.06743 312.84 3.67755C311.511 2.83854 305.794 2.16818 305.794 2.85144C305.794 3.12044 305.288 3.07935 304.575 2.75158C303.589 2.29862 303.276 2.32299 302.931 2.88154C302.578 3.45537 302.34 3.46732 301.518 2.95321C300.535 2.33876 298.18 1.9914 292.765 1.6622C291.201 1.56711 289.922 1.45913 289.922 1.42282C289.922 1.38603 289.034 1.31675 287.948 1.26897C286.398 1.20064 286.082 1.31245 286.475 1.79025C286.856 2.2518 286.789 2.32586 286.199 2.09747C285.771 1.93167 285.421 1.59339 285.421 1.34542C285.421 1.09696 284.302 0.91922 282.934 0.950276C280.815 0.998534 271.942 0.671243 267.172 0.368796C266.385 0.319105 265.362 0.425654 264.897 0.605306C264.389 0.801681 264.168 0.743867 264.342 0.460055C264.749 -0.20504 263.933 -0.129547 263.249 0.560872C262.807 1.00666 262.553 1.00666 262.111 0.560872C261.409 -0.147703 259.364 -0.197396 259.364 0.493501C259.364 0.771579 259.11 0.841816 258.801 0.648785C258.138 0.23549 246.065 0.0219154 246.308 0.427566C246.399 0.579984 245.91 1.11942 245.22 1.62684L243.966 2.54994L244.868 1.50739C245.77 0.467223 245.769 0.465312 244.395 0.420877C243.638 0.396031 242.219 0.321016 241.242 0.253647C240.196 0.181977 239.462 0.347774 239.458 0.656909C239.454 0.953622 239.276 0.905363 239.05 0.545581C238.657 -0.0803345 236.322 0.0056704 235.23 0.686055C234.954 0.85854 234.727 0.82557 234.727 0.61295C234.727 0.0147468 226.023 0.283749 225.823 0.888642C225.707 1.23743 225.219 1.18105 224.327 0.716156C223.599 0.336307 222.88 0.149965 222.729 0.301905C222.391 0.643531 218.903 0.618684 217.782 0.267025C217.331 0.125119 216.712 0.167165 216.408 0.360195ZM176.216 2.8543C176.377 3.11709 176.296 3.3321 176.035 3.3321C175.775 3.3321 175.43 3.11709 175.269 2.8543C175.107 2.59151 175.189 2.3765 175.45 2.3765C175.71 2.3765 176.055 2.59151 176.216 2.8543ZM149.755 3.57434C149.074 3.93078 148.41 4.04928 148.28 3.83713C147.958 3.31203 145.61 3.33975 144.592 3.88109C144.039 4.17446 143.763 4.14531 143.763 3.79461C143.763 3.50459 143.389 3.38323 142.933 3.52418C142.478 3.66513 141.328 3.82949 140.378 3.88921C139.225 3.96232 138.728 4.19596 138.879 4.59397C139.02 4.96474 138.732 5.16159 138.118 5.11477C137.575 5.07368 137.13 4.79894 137.13 4.50462C137.13 3.82758 135.396 3.93413 134.681 4.65513C134.33 5.00917 133.858 5.04501 133.325 4.75785C132.821 4.48551 130.902 4.50892 128.305 4.81901C125.993 5.0947 122.715 5.36991 121.021 5.43011C119.328 5.49032 117.504 5.78082 116.969 6.07514C116.433 6.36899 115.719 6.43779 115.382 6.22708C115.043 6.01637 113.989 6.01303 113.038 6.21896C112.087 6.42489 109.679 6.69341 107.686 6.81525C105.693 6.93757 103.813 7.19319 103.508 7.38335C103.203 7.57352 101.635 7.81815 100.024 7.92613C95.6071 8.22284 93.5429 8.46413 90.9442 8.98684C89.6456 9.2482 88.4199 9.36001 88.22 9.23578C88.0205 9.11107 87.8571 9.2138 87.8571 9.46416C87.8571 9.71453 87.5264 10.0471 87.1218 10.2038C86.7172 10.36 86.4954 10.3103 86.6286 10.0934C86.9038 9.64382 84.3511 9.75371 82.7967 10.2578C82.0856 10.4886 81.8558 10.8393 82.0595 11.3825C82.3172 12.0686 82.2452 12.061 81.509 11.3247C80.8466 10.663 80.1805 10.5363 78.456 10.7456C77.2422 10.8928 75.6005 11.0729 74.807 11.1455C74.0134 11.2182 73.1606 11.3988 72.9119 11.5474C72.6631 11.696 71.8729 11.7504 71.1565 11.6687C70.4402 11.587 69.8536 11.7175 69.8536 11.9592C69.8536 12.201 69.4803 12.3673 69.0245 12.329C67.2346 12.1776 66.4818 12.4112 66.8371 13.0075C67.0787 13.4132 66.9361 13.3945 66.3913 12.9492C65.8938 12.5421 65.5897 12.491 65.5897 12.8145C65.5897 13.1012 65.2917 13.2206 64.9268 13.0792C64.5625 12.9382 64.1214 13.0563 63.9466 13.341C63.7718 13.6263 63.4558 13.751 63.2435 13.6191C62.6437 13.245 55.1316 14.3047 54.0239 14.9197C53.48 15.2216 52.5182 15.5021 51.8867 15.5422C51.2551 15.5828 50.3488 16.1013 49.8731 16.6942C49.0815 17.6799 48.7721 17.6221 48.973 16.5265C49.0796 15.9426 44.5759 16.5007 44.3792 17.0956C44.2921 17.3593 43.6112 17.4778 42.8655 17.3593C41.2604 17.1042 40.6184 17.8682 41.5048 18.9781C42.0843 19.7034 42.0393 19.7024 40.9794 18.9666C39.7993 18.1472 37.1276 18.2069 35.0312 19.0994C34.51 19.3211 33.4886 19.6336 32.7613 19.7932C32.0341 19.9523 31.5579 20.2767 31.7029 20.5137C31.8484 20.7507 31.7375 21.0876 31.457 21.2624C31.1282 21.4674 31.2448 21.7995 31.7849 22.198C32.7457 22.9061 34.0026 22.6151 33.5161 21.7966C33.3374 21.4956 33.5506 21.5439 33.9903 21.9032C34.6725 22.4612 34.9658 22.4407 35.9896 21.7641C36.6501 21.3279 37.3825 21.0909 37.6175 21.2376C37.853 21.3843 38.1846 21.2768 38.3547 20.9992C38.5248 20.7211 39.1052 20.6351 39.6434 20.8076C40.4033 21.0508 40.5592 20.9533 40.3384 20.3733C40.1091 19.7712 40.2564 19.7039 41.096 20.0283C41.8763 20.3293 42.4249 20.1731 43.2801 19.4067C43.9083 18.8433 44.2783 18.6365 44.1016 18.947C43.6003 19.8276 44.5062 20.0966 45.5016 19.3627C46.0085 18.9886 46.6079 18.8754 46.8789 19.1023C47.6687 19.7636 50.6648 18.9222 50.6719 18.0373C50.6795 17.044 51.3575 16.3225 51.4323 17.2279C51.4636 17.6001 51.4565 18.0865 51.4176 18.3082C51.2504 19.26 52.5646 18.2045 52.856 17.1529C53.0664 16.3937 53.1933 16.2823 53.2241 16.8299C53.2672 17.5929 54.203 17.9523 55.4035 17.6665C55.6641 17.6044 56.3037 17.4988 56.8248 17.4319C57.346 17.365 57.7724 17.2551 57.7724 17.1883C57.7724 17.0053 59.3429 16.7621 62.5101 16.4553C65.8209 16.1342 66.6817 15.8992 66.3757 15.3999C66.2539 15.2011 66.7732 15.0382 67.5298 15.0382C68.2869 15.0382 68.9061 15.1791 68.9061 15.3516C68.9061 15.5241 69.3325 15.5527 69.8536 15.4156C70.3748 15.278 70.8012 14.9651 70.8012 14.7199C70.8012 14.4734 71.744 14.386 72.9114 14.5245C74.4019 14.7013 75.2258 14.569 75.7161 14.0744C76.2136 13.5732 76.4633 13.535 76.5973 13.9402C76.7409 14.375 77.5439 14.3721 80.0701 13.9263C81.8776 13.6076 83.7291 13.3377 84.1853 13.3267C84.6416 13.3157 85.0144 13.1007 85.0144 12.8494C85.0144 12.598 85.5503 12.5278 86.205 12.6936C86.8877 12.8661 87.696 12.7433 88.1001 12.405C88.4877 12.0806 88.8046 12.0142 88.8046 12.2569C88.8046 12.524 90.0706 12.5383 92.0026 12.2932C93.7617 12.0696 95.7336 11.9024 96.385 11.9215C97.0365 11.9401 98.5289 11.7375 99.7014 11.4704C100.874 11.2038 102.899 10.889 104.202 10.7709C105.505 10.6534 107.317 10.4226 108.229 10.2587C109.141 10.0949 111.273 9.89227 112.967 9.80913C118.839 9.52007 123.63 8.96773 124.177 8.51669C124.482 8.26585 124.841 8.24912 124.982 8.47942C125.341 9.06473 129.211 8.6844 130.378 7.94907C130.704 7.74361 130.971 7.76894 130.971 8.00497C130.971 8.241 131.663 8.35711 132.51 8.26298C133.357 8.16885 134.74 8.04462 135.583 7.98681C137.202 7.87644 138.052 6.78085 137.027 6.12483C136.693 5.91078 136.599 5.73256 136.818 5.72826C137.038 5.72444 137.759 6.15111 138.422 6.67669C139.652 7.65235 143.289 8.03842 143.289 7.19319C143.289 6.93231 143.98 6.94617 144.99 7.22759C147.086 7.81098 148.103 7.48082 147.737 6.3365C147.564 5.79563 147.612 5.68717 147.868 6.04169C148.48 6.88692 150.869 7.38718 150.869 6.67C150.869 6.20558 151.018 6.20653 151.576 6.67287C152.049 7.06992 152.989 7.15736 154.431 6.93948C156.53 6.62174 156.577 6.57587 156.471 4.97334C156.403 3.96566 156.113 3.3321 155.719 3.3321C155.366 3.3321 155.223 3.56957 155.4 3.85959C155.578 4.14961 155.164 4.01726 154.481 3.56574C153.766 3.0932 153.238 2.96563 153.238 3.26521C153.238 3.61591 152.871 3.64554 152.116 3.35599C151.351 3.06262 150.6 3.13238 149.755 3.57434ZM170.008 4.20791C170.142 4.42722 169.951 4.60639 169.583 4.60639C169.215 4.60639 169.024 4.42722 169.158 4.20791C169.292 3.98907 169.484 3.8099 169.583 3.8099C169.683 3.8099 169.874 3.98907 170.008 4.20791ZM104.913 9.09387C104.913 9.34137 104.7 9.54348 104.439 9.54348C104.179 9.54348 103.965 9.20807 103.965 8.79859C103.965 8.38912 104.179 8.18653 104.439 8.34898C104.7 8.51143 104.913 8.84637 104.913 9.09387ZM39.532 18.8324C39.532 18.9485 39.3188 19.1759 39.0583 19.3383C38.7977 19.5008 38.5845 19.4057 38.5845 19.1276C38.5845 18.8496 38.7977 18.6216 39.0583 18.6216C39.3188 18.6216 39.532 18.7163 39.532 18.8324ZM26.3848 22.004C25.7987 22.229 25.3188 22.6352 25.3188 22.9065C25.3188 23.6056 26.6127 23.5205 26.9017 22.8024C27.0869 22.3413 27.2466 22.3561 27.601 22.8669C28.1179 23.6123 30.5303 23.2372 30.5303 22.4111C30.5303 22.0823 30.2546 22.0742 29.7017 22.3867C29.1218 22.7135 28.6589 22.6648 28.1619 22.2242C27.6834 21.8004 27.1021 21.7283 26.3848 22.004ZM23.4237 22.8936C23.4237 23.1411 23.6701 23.4966 23.9709 23.6839C24.294 23.8856 24.3897 23.8163 24.2045 23.5143C24.0325 23.2334 24.1595 22.8946 24.4869 22.7613C24.846 22.6156 24.7531 22.5047 24.2528 22.4818C23.7966 22.4612 23.4237 22.6461 23.4237 22.8936ZM21.0548 23.8846C21.0548 24.1746 21.268 24.2788 21.5286 24.1163C21.7892 23.9539 22.0024 24.1565 22.0024 24.5659C22.0024 24.9754 22.3222 25.3108 22.713 25.3108C23.4834 25.3108 23.6113 24.8712 23.0613 24.1163C22.5629 23.4326 21.0548 23.2587 21.0548 23.8846ZM26.0295 24.3552C25.8684 24.618 25.9627 24.833 26.2384 24.833C26.5141 24.833 26.7401 24.618 26.7401 24.3552C26.7401 24.0924 26.6463 23.8774 26.5312 23.8774C26.4161 23.8774 26.1905 24.0924 26.0295 24.3552ZM18.7234 25.1116C18.7461 25.6682 18.8584 25.7815 19.0095 25.4006C19.1465 25.0557 19.1294 24.6433 18.9721 24.4847C18.8148 24.3261 18.703 24.608 18.7234 25.1116ZM15.3695 25.7891C14.7787 26.1857 14.7678 26.3371 15.3037 26.6854C16.1361 27.2273 17.8308 26.7848 17.6001 26.0863C17.3594 25.3576 16.2351 25.2081 15.3695 25.7891ZM12.8069 26.674C12.6695 26.8981 12.8633 27.4891 13.2375 27.9879C13.6118 28.4863 13.925 28.643 13.933 28.3362C13.9416 28.029 14.0775 27.438 14.2358 27.0223C14.5399 26.2229 13.2726 25.9138 12.8069 26.674ZM11.0449 27.2459C10.7829 28.1786 10.8279 29.611 11.1198 29.611C11.7456 29.611 12.1038 28.0376 11.595 27.5245C11.3259 27.2531 11.0785 27.1274 11.0449 27.2459ZM8.49979 28.5431C7.97295 28.9335 7.73607 31.0444 8.21932 31.0444C8.38798 31.0444 8.89966 30.6044 9.35638 30.0663C10.4593 28.7677 9.79367 27.5847 8.49979 28.5431ZM6.36781 30.0606C6.36781 30.6015 6.581 31.0444 6.84158 31.0444C7.10216 31.0444 7.31536 30.7348 7.31536 30.3559C7.31536 29.977 7.10216 29.5346 6.84158 29.3721C6.581 29.2097 6.36781 29.5197 6.36781 30.0606ZM4.41206 30.4194C3.85727 31.1094 3.86059 31.1682 4.4348 30.8189C4.93937 30.5121 5.03176 30.6087 4.80482 31.2049C4.63853 31.6421 4.68638 32 4.91047 32C5.32171 32 5.89403 30.8647 5.89403 30.0496C5.89403 29.3482 5.11846 29.5417 4.41206 30.4194Z" fill="#F8B63C"/>
</g>
<defs>
<filter id="filter0_d_1_19" x="0" y="0" width="357" height="40" filterUnits="userSpaceOnUse" color-interpolation-filters="sRGB">
<feFlood flood-opacity="0" result="BackgroundImageFix"/>
<feColorMatrix in="SourceAlpha" type="matrix" values="0 0 0 0 0 0 0 0 0 0 0 0 0 0 0 0 0 0 127 0" result="hardAlpha"/>
<feOffset dy="4"/>
<feGaussianBlur stdDeviation="2"/>
<feComposite in2="hardAlpha" operator="out"/>
<feColorMatrix type="matrix" values="0 0 0 0 0 0 0 0 0 0 0 0 0 0 0 0 0 0 0.25 0"/>
<feBlend mode="normal" in2="BackgroundImageFix" result="effect1_dropShadow_1_19"/>
<feBlend mode="normal" in="SourceGraphic" in2="effect1_dropShadow_1_19" result="shape"/>
</filter>
</defs>
</svg>
