<svg width="2045" height="375" viewBox="0 0 2045 375" fill="none" xmlns="http://www.w3.org/2000/svg">
<path d="M1251.95 373.889C1251.95 332.786 1243.86 292.084 1228.13 254.109C1212.4 216.134 1189.34 181.629 1160.28 152.565C1131.21 123.5 1096.71 100.444 1058.73 84.7147C1020.76 68.985 980.056 60.889 938.953 60.889C897.849 60.889 857.147 68.985 819.173 84.7147C781.198 100.444 746.693 123.5 717.628 152.565C688.563 181.63 665.508 216.134 649.778 254.109C634.048 292.084 625.952 332.786 625.952 373.889L938.953 373.889H1251.95Z" fill="#F8B63C"/>
<path d="M1278.86 374.285C1278.86 329.595 1270.07 285.344 1252.99 244.056C1235.91 202.768 1210.87 165.254 1179.31 133.654C1147.74 102.053 1110.27 76.9868 1069.03 59.8849C1027.79 42.7831 983.591 33.9808 938.954 33.9808C894.316 33.9808 850.116 42.7831 808.876 59.8849C767.637 76.9868 730.166 102.053 698.602 133.654C667.039 165.254 642.001 202.769 624.919 244.056C607.837 285.344 599.045 329.595 599.045 374.285" stroke="#F8B63C" stroke-width="2"/>
<path d="M1335.84 374.285C1335.84 325.334 1325.57 276.863 1305.6 231.639C1285.63 186.415 1256.37 145.323 1219.48 110.71C1182.59 76.0965 1138.79 48.6398 1090.59 29.9073C1042.39 11.1748 990.729 1.53326 938.556 1.53326C886.384 1.53327 834.723 11.1748 786.522 29.9073C738.321 48.6398 694.525 76.0965 657.634 110.71C620.742 145.323 591.478 186.415 571.513 231.639C551.548 276.863 541.271 325.334 541.271 374.285" stroke="#F8B63C" stroke-width="2"/>
<path d="M1933.13 374.285C1933.13 333.997 1924.66 294.104 1908.22 256.883C1891.78 219.661 1867.69 185.841 1837.31 157.354C1806.93 128.866 1770.86 106.268 1731.17 90.8505C1691.48 75.433 1648.94 67.4977 1605.98 67.4977C1563.02 67.4977 1520.47 75.433 1480.78 90.8505C1441.09 106.268 1405.03 128.866 1374.65 157.354C1344.27 185.841 1320.17 219.661 1303.73 256.883C1287.29 294.104 1278.83 333.997 1278.83 374.285" stroke="#F8B63C" stroke-width="2"/>
<path d="M1933.13 374.285C1933.13 337.562 1925.4 301.199 1910.39 267.272C1895.39 233.345 1873.39 202.518 1845.66 176.551C1817.92 150.584 1785 129.986 1748.77 115.933C1712.54 101.88 1673.7 94.6471 1634.48 94.6471C1595.27 94.6471 1556.43 101.88 1520.2 115.933C1483.97 129.986 1451.04 150.584 1423.31 176.551C1395.58 202.518 1373.58 233.345 1358.57 267.272C1343.57 301.2 1335.84 337.563 1335.84 374.285" stroke="#F8B63C" stroke-width="2"/>
<path d="M1933.13 374.285C1933.13 341.009 1926.12 308.059 1912.5 277.315C1898.87 246.572 1878.91 218.638 1853.74 195.109C1828.57 171.579 1798.69 152.914 1765.81 140.18C1732.92 127.446 1697.68 120.891 1662.09 120.891C1626.49 120.891 1591.25 127.446 1558.36 140.18C1525.48 152.914 1495.6 171.579 1470.43 195.109C1445.26 218.638 1425.3 246.572 1411.68 277.315C1398.06 308.059 1391.05 341.009 1391.05 374.285" stroke="#F8B63C" stroke-width="2"/>
<path d="M1988.33 374.285C1988.33 344.455 1981.32 314.918 1967.7 287.359C1954.08 259.8 1934.11 234.759 1908.94 213.666C1883.78 192.573 1853.9 175.842 1821.01 164.426C1788.13 153.011 1752.88 147.136 1717.29 147.136C1681.7 147.136 1646.45 153.011 1613.57 164.426C1580.68 175.842 1550.8 192.573 1525.63 213.666C1500.47 234.759 1480.5 259.8 1466.88 287.359C1453.26 314.918 1446.25 344.455 1446.25 374.285" stroke="#F8B63C" stroke-width="2"/>
<path d="M2043.53 374.285C2043.53 347.308 2036.52 320.594 2022.9 295.67C2009.28 270.747 1989.32 248.1 1964.15 229.024C1938.98 209.948 1909.1 194.816 1876.22 184.493C1843.33 174.169 1808.09 168.855 1772.49 168.855C1736.9 168.855 1701.65 174.169 1668.77 184.493C1635.89 194.816 1606.01 209.948 1580.84 229.024C1555.67 248.1 1535.7 270.747 1522.08 295.67C1508.46 320.594 1501.45 347.308 1501.45 374.285" stroke="#F8B63C" stroke-width="2"/>
<path d="M1933.13 374.285C1933.13 333.997 1924.66 294.104 1908.22 256.883C1891.78 219.661 1867.69 185.841 1837.31 157.354C1806.93 128.866 1770.86 106.268 1731.17 90.8505C1691.48 75.433 1648.94 67.4977 1605.98 67.4977C1563.02 67.4977 1520.47 75.433 1480.78 90.8505C1441.09 106.268 1405.03 128.866 1374.65 157.354C1344.27 185.841 1320.17 219.661 1303.73 256.883C1287.29 294.104 1278.83 333.997 1278.83 374.285" stroke="#F8B63C" stroke-width="2"/>
<path d="M1933.13 374.285C1933.13 337.562 1925.4 301.199 1910.39 267.272C1895.39 233.345 1873.39 202.518 1845.66 176.551C1817.92 150.584 1785 129.986 1748.77 115.933C1712.54 101.88 1673.7 94.6471 1634.48 94.6471C1595.27 94.6471 1556.43 101.88 1520.2 115.933C1483.97 129.986 1451.04 150.584 1423.31 176.551C1395.58 202.518 1373.58 233.345 1358.57 267.272C1343.57 301.2 1335.84 337.563 1335.84 374.285" stroke="#F8B63C" stroke-width="2"/>
<path d="M1933.13 374.285C1933.13 341.009 1926.12 308.059 1912.5 277.315C1898.87 246.572 1878.91 218.638 1853.74 195.109C1828.57 171.579 1798.69 152.914 1765.81 140.18C1732.92 127.446 1697.68 120.891 1662.09 120.891C1626.49 120.891 1591.25 127.446 1558.36 140.18C1525.48 152.914 1495.6 171.579 1470.43 195.109C1445.26 218.638 1425.3 246.572 1411.68 277.315C1398.06 308.059 1391.05 341.009 1391.05 374.285" stroke="#F8B63C" stroke-width="2"/>
<path d="M1988.33 374.285C1988.33 344.455 1981.32 314.918 1967.7 287.359C1954.08 259.8 1934.11 234.759 1908.94 213.666C1883.78 192.573 1853.9 175.842 1821.01 164.426C1788.13 153.011 1752.88 147.136 1717.29 147.136C1681.7 147.136 1646.45 153.011 1613.57 164.426C1580.68 175.842 1550.8 192.573 1525.63 213.666C1500.47 234.759 1480.5 259.8 1466.88 287.359C1453.26 314.918 1446.25 344.455 1446.25 374.285" stroke="#F8B63C" stroke-width="2"/>
<path d="M2043.53 374.285C2043.53 347.308 2036.52 320.594 2022.9 295.67C2009.28 270.747 1989.32 248.1 1964.15 229.024C1938.98 209.948 1909.1 194.816 1876.22 184.493C1843.33 174.169 1808.09 168.855 1772.49 168.855C1736.9 168.855 1701.65 174.169 1668.77 184.493C1635.89 194.816 1606.01 209.948 1580.84 229.024C1555.67 248.1 1535.7 270.747 1522.08 295.67C1508.46 320.594 1501.45 347.308 1501.45 374.285" stroke="#F8B63C" stroke-width="2"/>
<path d="M134.937 373.38C134.937 348.779 140.941 324.42 152.606 301.692C164.272 278.964 181.37 258.313 202.925 240.917C224.48 223.522 250.069 209.724 278.232 200.309C306.395 190.895 336.58 186.05 367.063 186.05C397.547 186.05 427.731 190.895 455.894 200.309C484.057 209.724 509.647 223.522 531.202 240.917C552.757 258.313 569.855 278.964 581.52 301.692C593.186 324.42 599.19 348.779 599.19 373.38" stroke="#F8B63C" stroke-width="2"/>
<path d="M117.742 374.285C117.742 354.319 123.22 334.549 133.862 316.103C144.504 297.658 160.102 280.897 179.767 266.779C199.431 252.661 222.775 241.463 248.468 233.822C274.16 226.181 301.697 222.249 329.507 222.249C357.316 222.249 384.853 226.181 410.546 233.822C436.238 241.463 459.583 252.661 479.247 266.779C498.911 280.897 514.51 297.658 525.152 316.103C535.794 334.549 541.271 354.319 541.271 374.285" stroke="#F8B63C" stroke-width="2"/>
<path d="M58.9184 374.285C58.9184 357.766 64.3958 341.408 75.038 326.147C85.6802 310.885 101.279 297.018 120.943 285.337C140.607 273.656 163.952 264.39 189.644 258.068C215.337 251.747 242.874 248.493 270.683 248.493C298.492 248.493 326.029 251.747 351.722 258.068C377.414 264.39 400.759 273.656 420.423 285.337C440.087 297.018 455.686 310.885 466.328 326.147C476.97 341.408 482.448 357.766 482.448 374.285" stroke="#F8B63C" stroke-width="2"/>
<path d="M0.999912 373.38C0.999912 360.307 6.47737 347.362 17.1195 335.285C27.7617 323.207 43.3602 312.233 63.0244 302.989C82.6885 293.745 106.033 286.413 131.726 281.41C157.418 276.407 184.955 273.833 212.765 273.833C240.574 273.833 268.111 276.407 293.803 281.41C319.496 286.413 342.841 293.745 362.505 302.989C382.169 312.233 397.768 323.207 408.41 335.285C419.052 347.363 424.529 360.307 424.529 373.38" stroke="#F8B63C" stroke-width="2"/>
</svg>
